<svg width="38" height="38" viewBox="0 0 38 38" fill="none" xmlns="http://www.w3.org/2000/svg">
<path d="M6.84004 3.03998C4.7504 3.03998 3.04004 4.75034 3.04004 6.83998V31.16C3.04004 33.2496 4.7504 34.96 6.84004 34.96H19.6324C19.7145 34.9735 19.7982 34.9735 19.8803 34.96H24.1924C24.2745 34.9735 24.3582 34.9735 24.4403 34.96H31.16C33.2497 34.96 34.96 33.2496 34.96 31.16V6.83998C34.96 4.75034 33.2497 3.03998 31.16 3.03998H6.84004ZM6.84004 4.55998H31.16C32.4281 4.55998 33.44 5.57193 33.44 6.83998V31.16C33.44 32.428 32.4281 33.44 31.16 33.44H25.08V22.8H27.9835L29.0478 17.48H25.08V15.96C25.08 15.5363 25.1204 15.5032 25.2626 15.4108C25.4049 15.3183 25.8445 15.2 26.6 15.2H28.88V10.9205L28.4466 10.7142C28.4466 10.7142 26.7009 9.87997 24.32 9.87997C22.61 9.87997 21.2052 10.5613 20.3063 11.685C19.4073 12.8087 19 14.3133 19 15.96V17.48H16.72V22.8H19V33.44H6.84004C5.57199 33.44 4.56004 32.428 4.56004 31.16V6.83997C4.56004 5.57193 5.57199 4.55998 6.84004 4.55998ZM24.32 11.4C25.9001 11.4 26.8944 11.7484 27.36 11.9329V13.68H26.6C25.7254 13.68 25.0245 13.7523 24.4343 14.1357C23.8441 14.519 23.56 15.2467 23.56 15.96V19H27.1923L26.7366 21.28H23.56V33.44H20.52V21.28H18.24V19H20.52V15.96C20.52 14.5666 20.8727 13.4113 21.4938 12.635C22.1148 11.8587 22.99 11.4 24.32 11.4Z" fill="#C2EFD4"/>
</svg>
