<svg width="179" height="181" viewBox="0 0 179 181" fill="none" xmlns="http://www.w3.org/2000/svg">
<path d="M2 2.7312H21.9132C25.0912 2.7312 27.8951 5.3009 28.8193 9.06026L59.993 135.855C60.9173 139.614 63.7213 142.184 66.8989 142.184H137.137C140.439 142.184 143.322 139.412 144.133 135.454L156.71 74.1672C157.521 70.2087 160.404 67.4373 163.706 67.4373H176.136" stroke="black" stroke-width="3.75648" stroke-linecap="round"/>
<path d="M104.967 38.2956C103.91 36.9889 102.196 36.9889 101.139 38.2956L83.9132 59.5951C82.8564 60.9022 82.8564 63.0211 83.9132 64.3282C84.9703 65.6352 86.6843 65.6352 87.7413 64.3282L103.053 45.3956L118.365 64.3282C119.422 65.6352 121.136 65.6352 122.193 64.3282C123.25 63.0211 123.25 60.9022 122.193 59.5951L104.967 38.2956ZM105.76 103.137V40.6623H100.346V103.137H105.76Z" fill="black"/>
<path d="M84.1057 178.999C88.5904 178.999 92.226 174.504 92.226 168.959C92.226 163.413 88.5904 158.918 84.1057 158.918C79.6209 158.918 75.9854 163.413 75.9854 168.959C75.9854 174.504 79.6209 178.999 84.1057 178.999Z" stroke="black" stroke-width="3.00518"/>
<path d="M123.805 178.999C128.29 178.999 131.925 174.504 131.925 168.959C131.925 163.413 128.29 158.918 123.805 158.918C119.32 158.918 115.685 163.413 115.685 168.959C115.685 174.504 119.32 178.999 123.805 178.999Z" stroke="black" stroke-width="3.00518"/>
</svg>
