<svg width="30" height="37" viewBox="0 0 30 37" fill="none" xmlns="http://www.w3.org/2000/svg">
<rect width="29.1719" height="36.0278" fill="black"/>
<path d="M23.0944 16.5127H6.07747C4.73488 16.5127 3.64648 17.8569 3.64648 19.515V30.0231C3.64648 31.6813 4.73488 33.0255 6.07747 33.0255H23.0944C24.437 33.0255 25.5254 31.6813 25.5254 30.0231V19.515C25.5254 17.8569 24.437 16.5127 23.0944 16.5127Z" stroke="white" stroke-linecap="round" stroke-linejoin="round"/>
<path d="M8.5083 16.5127V10.5081C8.5083 8.51745 9.1486 6.60832 10.2884 5.20071C11.4281 3.79311 12.9739 3.00232 14.5858 3.00232C16.1976 3.00232 17.7435 3.79311 18.8832 5.20071C20.0229 6.60832 20.6632 8.51745 20.6632 10.5081V16.5127" stroke="white" stroke-linecap="round" stroke-linejoin="round"/>
</svg>
