<svg width="33" height="36" viewBox="0 0 33 36" fill="none" xmlns="http://www.w3.org/2000/svg">
<g clip-path="url(#clip0_31_304)">
<path d="M22.2888 4.19373C18.5406 4.19373 15.4925 7.63723 15.4925 11.8718C15.4925 12.1262 15.5489 12.3752 15.5709 12.6241C10.9364 12.1235 6.83812 9.601 4.0545 5.74261C3.92475 5.5573 3.724 5.45773 3.51345 5.47432C3.30535 5.49092 3.11928 5.62644 3.01646 5.83112C2.43134 6.96789 2.09593 8.27615 2.09593 9.68121C2.09593 11.3822 2.63454 12.9394 3.46693 14.2172C3.30535 14.137 3.12908 14.0928 2.97729 13.996C2.78388 13.8798 2.5513 13.8853 2.36279 14.0126C2.17428 14.1398 2.05921 14.3694 2.05676 14.6155V14.704C2.05676 17.3122 3.25149 19.5775 5.0142 20.966C4.99461 20.9632 4.97503 20.9715 4.95544 20.966C4.74 20.9245 4.52211 21.0102 4.37767 21.1955C4.23322 21.3808 4.18671 21.6381 4.25036 21.8732C4.95055 24.332 6.73775 26.2101 8.95093 26.896C7.18822 28.0798 5.14396 28.7768 2.93812 28.7768C2.46072 28.7768 2.00291 28.7491 1.54754 28.6883C1.25375 28.644 0.972209 28.8376 0.874281 29.1529C0.773902 29.4683 0.884077 29.8195 1.13624 29.9938C3.96392 32.0433 7.32042 33.2464 10.9291 33.2464C16.7779 33.2464 21.3658 30.4861 24.4432 26.542C27.5206 22.5978 29.1242 17.4754 29.1242 12.6905C29.1242 12.4886 29.1095 12.2922 29.1046 12.0931C30.2528 11.1001 31.2786 9.93568 32.0816 8.57486C32.2408 8.31211 32.2236 7.96084 32.04 7.71744C31.8588 7.47405 31.5528 7.39937 31.2982 7.5349C30.975 7.69808 30.598 7.71468 30.2602 7.84467C30.7057 7.17257 31.0877 6.44791 31.3178 5.63198C31.3961 5.35263 31.3104 5.04562 31.1072 4.86306C30.904 4.68328 30.6201 4.66115 30.3973 4.81328C29.3274 5.52964 28.1425 6.03303 26.8914 6.34004C25.6771 5.05668 24.0784 4.19373 22.2888 4.19373ZM22.2888 5.60985C23.8875 5.60985 25.3319 6.38153 26.343 7.60128C26.4948 7.77829 26.7176 7.85297 26.9306 7.80042C27.7483 7.61788 28.5244 7.34958 29.2809 7.00385C28.8451 7.66766 28.3065 8.23466 27.6748 8.66337C27.3884 8.82103 27.2538 9.19442 27.359 9.53462C27.4618 9.87206 27.7752 10.0684 28.0861 9.99099C28.7129 9.90525 29.2711 9.6176 29.8684 9.43782C29.3323 10.0933 28.7447 10.6852 28.1057 11.208C27.9319 11.3518 27.8364 11.5841 27.8511 11.8275C27.8609 12.1152 27.8707 12.4001 27.8707 12.6905C27.8707 17.1159 26.3675 21.9202 23.5031 25.5905C20.6387 29.2608 16.4327 31.8303 10.9291 31.8303C8.42946 31.8303 6.06938 31.2052 3.93699 30.1044C6.58106 29.8748 9.01948 28.8183 10.9878 27.073C11.1935 26.8877 11.2743 26.5779 11.191 26.2958C11.1078 26.0137 10.8777 25.8201 10.6157 25.8118C8.54942 25.7703 6.81853 24.4122 5.89556 22.4927C5.92983 22.4927 5.95921 22.4927 5.99348 22.4927C6.61288 22.4927 7.22493 22.4042 7.79537 22.2272C8.06957 22.1359 8.25808 21.8483 8.24829 21.5247C8.2385 21.2011 8.0353 20.9245 7.7562 20.8553C5.52588 20.3464 3.85375 18.2941 3.46693 15.744C4.09857 15.9902 4.7449 16.1838 5.44509 16.2087C5.73152 16.228 5.99103 16.0261 6.07917 15.7191C6.16731 15.4121 6.05959 15.0747 5.81721 14.9032C4.3287 13.7775 3.34942 11.8607 3.34942 9.68121C3.34942 8.87358 3.53548 8.13233 3.7803 7.42426C6.91401 11.3103 11.3012 13.8909 16.2564 14.173C16.4522 14.1841 16.6432 14.0928 16.7705 13.9241C16.8978 13.7526 16.9468 13.5258 16.9027 13.31C16.8072 12.8509 16.746 12.3641 16.746 11.8718C16.746 8.40338 19.2187 5.60985 22.2888 5.60985Z" fill="#C2EFD4"/>
</g>
<defs>
<clipPath id="clip0_31_304">
<rect width="31.3371" height="35.4031" fill="white" transform="translate(0.842285 0.321533)"/>
</clipPath>
</defs>
</svg>
