<svg width="36" height="40" viewBox="0 0 36 40" fill="none" xmlns="http://www.w3.org/2000/svg">
<g clip-path="url(#clip0_31_228)">
<path d="M24.4104 4.97156C20.1426 4.97156 16.672 8.77154 16.672 13.4444C16.672 13.7252 16.7361 13.9999 16.7612 14.2746C11.4843 13.7222 6.81791 10.9386 3.64841 6.68079C3.50067 6.47629 3.27209 6.36641 3.03236 6.38472C2.79541 6.40303 2.58355 6.55259 2.46648 6.77846C1.80025 8.03291 1.41834 9.4766 1.41834 11.0271C1.41834 12.9042 2.03162 14.6226 2.97939 16.0327C2.79541 15.9442 2.59471 15.8954 2.42187 15.7885C2.20166 15.6603 1.93683 15.6664 1.72219 15.8068C1.50755 15.9472 1.37652 16.2006 1.37374 16.4722V16.5699C1.37374 19.4481 2.73408 21.9479 4.74115 23.4801C4.71885 23.477 4.69655 23.4862 4.67425 23.4801C4.42894 23.4343 4.18084 23.5289 4.01638 23.7334C3.85191 23.9379 3.79895 24.2217 3.87143 24.4812C4.66868 27.1946 6.70362 29.267 9.2236 30.024C7.21653 31.3303 4.8889 32.0994 2.37728 32.0994C1.8337 32.0994 1.31242 32.0689 0.79393 32.0018C0.459419 31.9529 0.138845 32.1666 0.0273419 32.5145C-0.0869519 32.8625 0.0384958 33.2501 0.325615 33.4424C3.54528 35.7041 7.36707 37.0318 11.476 37.0318C18.1355 37.0318 23.3595 33.9857 26.8635 29.6333C30.3675 25.2808 32.1933 19.6282 32.1933 14.3479C32.1933 14.1251 32.1766 13.9084 32.171 13.6886C33.4784 12.5929 34.6464 11.3079 35.5607 9.80623C35.7419 9.51628 35.7224 9.12864 35.5134 8.86005C35.3071 8.59146 34.9586 8.50905 34.6687 8.65861C34.3008 8.83869 33.8715 8.857 33.4868 9.00045C33.9941 8.25877 34.429 7.45909 34.691 6.5587C34.7802 6.25043 34.6827 5.91164 34.4513 5.71019C34.2199 5.51179 33.8966 5.48737 33.6429 5.65525C32.4247 6.44577 31.0755 7.00127 29.6511 7.34006C28.2684 5.92384 26.4481 4.97156 24.4104 4.97156ZM24.4104 6.53428C26.2307 6.53428 27.8754 7.38584 29.0266 8.73186C29.1995 8.9272 29.4531 9.00961 29.6956 8.95162C30.6267 8.75017 31.5104 8.45411 32.3717 8.07259C31.8755 8.80511 31.2623 9.43081 30.5431 9.9039C30.2169 10.0779 30.0636 10.4899 30.1835 10.8653C30.3006 11.2377 30.6574 11.4544 31.0114 11.369C31.725 11.2743 32.3606 10.9569 33.0408 10.7585C32.4303 11.4819 31.7612 12.1351 31.0337 12.7119C30.8358 12.8706 30.7271 13.127 30.7438 13.3956C30.7549 13.713 30.7661 14.0274 30.7661 14.3479C30.7661 19.2314 29.0545 24.5331 25.793 28.5833C22.5315 32.6336 17.7425 35.4691 11.476 35.4691C8.62984 35.4691 5.9426 34.7793 3.51461 33.5645C6.52521 33.3112 9.30165 32.1452 11.5429 30.2193C11.777 30.0148 11.869 29.673 11.7742 29.3616C11.6795 29.0503 11.4174 28.8367 11.1192 28.8275C8.76643 28.7817 6.7956 27.2831 5.74468 25.1649C5.78371 25.1649 5.81716 25.1649 5.85618 25.1649C6.56144 25.1649 7.25834 25.0672 7.90785 24.8719C8.22006 24.7711 8.4347 24.4537 8.42356 24.0966C8.41241 23.7395 8.18104 23.4343 7.86325 23.358C5.32376 22.7964 3.41983 20.5316 2.97939 17.7175C3.69859 17.9892 4.43451 18.2028 5.23176 18.2303C5.55791 18.2516 5.85339 18.0288 5.95375 17.69C6.05411 17.3513 5.93145 16.9789 5.65548 16.7896C3.96062 15.5474 2.84559 13.4322 2.84559 11.0271C2.84559 10.1359 3.05745 9.31788 3.3362 8.53652C6.90432 12.8248 11.8997 15.6725 17.5418 15.9839C17.7648 15.9961 17.9822 15.8954 18.1271 15.7092C18.2721 15.5199 18.3279 15.2697 18.2777 15.0316C18.169 14.5249 18.0993 13.9877 18.0993 13.4444C18.0993 9.61699 20.9147 6.53428 24.4104 6.53428Z" fill="#C2EFD4"/>
</g>
<defs>
<clipPath id="clip0_31_228">
<rect width="35.6811" height="39.0681" fill="white" transform="translate(-0.00878906 0.698486)"/>
</clipPath>
</defs>
</svg>
