<svg width="33" height="37" viewBox="0 0 33 37" fill="none" xmlns="http://www.w3.org/2000/svg">
<g clip-path="url(#clip0_30_24)">
<path d="M22.2651 4.73029C18.3937 4.73029 15.2455 8.1631 15.2455 12.3845C15.2455 12.6382 15.3037 12.8863 15.3264 13.1345C10.5396 12.6354 6.3066 10.1208 3.43149 6.27436C3.29747 6.08962 3.09012 5.99037 2.87265 6.0069C2.65771 6.02345 2.46553 6.15855 2.35933 6.3626C1.75497 7.49584 1.40854 8.80004 1.40854 10.2007C1.40854 11.8965 1.96485 13.4488 2.8246 14.7227C2.65771 14.6427 2.47565 14.5986 2.31887 14.5021C2.1191 14.3863 1.87887 14.3918 1.68417 14.5186C1.48946 14.6455 1.37061 14.8743 1.36808 15.1197V15.208C1.36808 17.8081 2.60208 20.0663 4.42273 21.4504C4.4025 21.4477 4.38227 21.4559 4.36204 21.4504C4.13952 21.4091 3.91446 21.4946 3.76528 21.6793C3.61608 21.864 3.56804 22.1205 3.63379 22.3548C4.35699 24.806 6.20293 26.6782 8.48886 27.362C6.66821 28.5422 4.55676 29.237 2.27841 29.237C1.78532 29.237 1.31246 29.2094 0.842122 29.1488C0.53868 29.1046 0.24788 29.2977 0.146733 29.612C0.0430545 29.9263 0.156851 30.2765 0.417303 30.4502C3.33793 32.4933 6.80476 33.6928 10.532 33.6928C16.5731 33.6928 21.3118 30.941 24.4904 27.0091C27.6689 23.0772 29.3252 17.9707 29.3252 13.2007C29.3252 12.9994 29.31 12.8036 29.305 12.6051C30.4909 11.6152 31.5505 10.4544 32.3799 9.09782C32.5442 8.83588 32.5265 8.4857 32.3369 8.24306C32.1497 8.00042 31.8337 7.92597 31.5707 8.06108C31.2369 8.22376 30.8475 8.24031 30.4985 8.3699C30.9587 7.69988 31.3532 6.97747 31.5909 6.16407C31.6718 5.88559 31.5833 5.57953 31.3734 5.39755C31.1636 5.21832 30.8702 5.19626 30.6401 5.34792C29.5351 6.06205 28.3112 6.56388 27.0191 6.86994C25.7648 5.59056 24.1136 4.73029 22.2651 4.73029ZM22.2651 6.14201C23.9164 6.14201 25.4083 6.91129 26.4526 8.12726C26.6094 8.30372 26.8395 8.37817 27.0595 8.32578C27.9041 8.1438 28.7057 7.87634 29.487 7.53168C29.0369 8.19343 28.4806 8.75867 27.8282 9.18605C27.5324 9.34322 27.3933 9.71545 27.502 10.0546C27.6082 10.391 27.9319 10.5868 28.253 10.5095C28.9004 10.4241 29.4769 10.1373 30.0939 9.95809C29.5401 10.6116 28.9333 11.2016 28.2733 11.7227C28.0937 11.8661 27.9951 12.0977 28.0103 12.3404C28.0204 12.6271 28.0305 12.9111 28.0305 13.2007C28.0305 17.6123 26.4779 22.4017 23.5193 26.0606C20.5608 29.7195 16.2165 32.281 10.532 32.281C7.95024 32.281 5.51259 31.6579 3.31011 30.5605C6.04109 30.3316 8.55966 29.2784 10.5927 27.5385C10.8051 27.3538 10.8886 27.045 10.8026 26.7637C10.7166 26.4825 10.4789 26.2895 10.2084 26.2812C8.07415 26.2398 6.28637 24.886 5.33306 22.9725C5.36846 22.9725 5.3988 22.9725 5.4342 22.9725C6.07396 22.9725 6.70613 22.8842 7.29531 22.7078C7.57853 22.6168 7.77324 22.33 7.76312 22.0074C7.75301 21.6848 7.54313 21.4091 7.25486 21.3401C4.95123 20.8328 3.22414 18.7869 2.8246 16.2447C3.477 16.4901 4.14457 16.6831 4.86778 16.7079C5.16363 16.7272 5.43167 16.5259 5.52271 16.2199C5.61374 15.9138 5.50248 15.5774 5.25214 15.4065C3.7147 14.2843 2.70323 12.3735 2.70323 10.2007C2.70323 9.39561 2.89541 8.65665 3.14827 7.95079C6.38499 11.8248 10.9164 14.3973 16.0344 14.6786C16.2367 14.6896 16.434 14.5986 16.5655 14.4304C16.697 14.2594 16.7475 14.0334 16.702 13.8183C16.6034 13.3606 16.5402 12.8753 16.5402 12.3845C16.5402 8.92687 19.0942 6.14201 22.2651 6.14201Z" fill="#C2EFD4"/>
</g>
<defs>
<clipPath id="clip0_30_24">
<rect width="32.3671" height="35.2932" fill="white" transform="translate(0.11377 0.870117)"/>
</clipPath>
</defs>
</svg>
