<svg width="37" height="43" viewBox="0 0 37 43" fill="none" xmlns="http://www.w3.org/2000/svg">
<g clip-path="url(#clip0_31_138)">
<path d="M25.2485 5.45715C20.8884 5.45715 17.3428 9.553 17.3428 14.5897C17.3428 14.8924 17.4083 15.1885 17.4339 15.4846C12.0429 14.8891 7.27554 11.8888 4.03751 7.29946C3.88657 7.07904 3.65305 6.96061 3.40813 6.98035C3.16606 7.00009 2.94962 7.16128 2.83001 7.40474C2.14937 8.75686 1.75921 10.313 1.75921 11.9842C1.75921 14.0074 2.38574 15.8596 3.35402 17.3795C3.16606 17.2841 2.96101 17.2315 2.78444 17.1163C2.55946 16.9782 2.28891 16.9848 2.06963 17.1361C1.85034 17.2874 1.71649 17.5605 1.71364 17.8533V17.9585C1.71364 21.0609 3.1034 23.7552 5.15387 25.4067C5.13109 25.4034 5.10831 25.4133 5.08552 25.4067C4.83491 25.3574 4.58145 25.4594 4.41343 25.6798C4.2454 25.9002 4.19129 26.2062 4.26534 26.4858C5.07984 29.4105 7.15878 31.6443 9.73326 32.4602C7.68279 33.8682 5.30482 34.6972 2.73888 34.6972C2.18355 34.6972 1.65099 34.6644 1.12129 34.592C0.779547 34.5393 0.45204 34.7696 0.338125 35.1447C0.22136 35.5197 0.349521 35.9375 0.642849 36.1448C3.93214 38.5826 7.83658 40.0136 12.0343 40.0136C18.8379 40.0136 24.1748 36.7304 27.7546 32.0391C31.3344 27.3477 33.1997 21.255 33.1997 15.5635C33.1997 15.3234 33.1827 15.0898 33.177 14.8529C34.5126 13.6719 35.7059 12.2869 36.64 10.6683C36.8251 10.3557 36.8051 9.93791 36.5916 9.64841C36.3808 9.3589 36.0248 9.27007 35.7287 9.43128C35.3527 9.62538 34.9142 9.64512 34.5212 9.79974C35.0395 9.00031 35.4837 8.13837 35.7514 7.16787C35.8426 6.8356 35.7429 6.47043 35.5065 6.25329C35.2701 6.03945 34.9398 6.01313 34.6806 6.19408C33.4361 7.04615 32.0577 7.6449 30.6025 8.01007C29.1899 6.48358 27.3303 5.45715 25.2485 5.45715ZM25.2485 7.14155C27.1081 7.14155 28.7884 8.05941 29.9645 9.51024C30.1411 9.72079 30.4003 9.80961 30.648 9.7471C31.5992 9.52998 32.502 9.21086 33.382 8.79963C32.8751 9.58919 32.2485 10.2636 31.5138 10.7735C31.1806 10.9611 31.024 11.4052 31.1464 11.8098C31.266 12.2112 31.6305 12.4448 31.9922 12.3527C32.7213 12.2507 33.3706 11.9085 34.0655 11.6947C33.4418 12.4744 32.7583 13.1784 32.015 13.8002C31.8128 13.9713 31.7017 14.2476 31.7188 14.5371C31.7302 14.8793 31.7416 15.2181 31.7416 15.5635C31.7416 20.8273 29.993 26.5417 26.661 30.9074C23.329 35.273 18.4364 38.3292 12.0343 38.3292C9.12666 38.3292 6.3813 37.5857 3.90081 36.2764C6.97651 36.0033 9.813 34.7466 12.1027 32.6707C12.3419 32.4503 12.4359 32.0818 12.3391 31.7463C12.2422 31.4107 11.9745 31.1804 11.6698 31.1705C9.26621 31.1212 7.25276 29.5059 6.17911 27.2227C6.21898 27.2227 6.25315 27.2227 6.29302 27.2227C7.01353 27.2227 7.7255 27.1175 8.38906 26.9069C8.70802 26.7983 8.9273 26.4562 8.91592 26.0713C8.90453 25.6864 8.66815 25.3574 8.34349 25.2751C5.74908 24.6698 3.80398 22.2288 3.35402 19.1955C4.08877 19.4883 4.8406 19.7186 5.6551 19.7482C5.9883 19.7712 6.29017 19.5311 6.3927 19.1659C6.49523 18.8007 6.36992 18.3994 6.08798 18.1954C4.35647 16.8565 3.21732 14.5766 3.21732 11.9842C3.21732 11.0236 3.43376 10.1419 3.71854 9.29969C7.36382 13.9219 12.4672 16.9913 18.2313 17.3269C18.4591 17.3401 18.6813 17.2315 18.8294 17.0308C18.9775 16.8268 19.0344 16.5571 18.9831 16.3005C18.8721 15.7543 18.8009 15.1753 18.8009 14.5897C18.8009 10.4643 21.6772 7.14155 25.2485 7.14155Z" fill="#C2EFD4"/>
</g>
<defs>
<clipPath id="clip0_31_138">
<rect width="36.4528" height="42.1099" fill="white" transform="translate(0.300629 0.851318)"/>
</clipPath>
</defs>
</svg>
