<svg width="34" height="34" viewBox="0 0 34 34" fill="none" xmlns="http://www.w3.org/2000/svg">
<path d="M9.88 0C4.43268 0 0 4.43268 0 9.88V23.56C0 29.0073 4.43268 33.44 9.88 33.44H23.56C29.0073 33.44 33.44 29.0073 33.44 23.56V9.88C33.44 4.43268 29.0073 0 23.56 0H9.88ZM9.88 1.52H23.56C28.1857 1.52 31.92 5.25428 31.92 9.88V23.56C31.92 28.1857 28.1857 31.92 23.56 31.92H9.88C5.25428 31.92 1.52 28.1857 1.52 23.56V9.88C1.52 5.25428 5.25428 1.52 9.88 1.52ZM25.84 6.08C25.0005 6.08 24.32 6.76053 24.32 7.6C24.32 8.43947 25.0005 9.12 25.84 9.12C26.6795 9.12 27.36 8.43947 27.36 7.6C27.36 6.76053 26.6795 6.08 25.84 6.08ZM16.72 8.36C12.1119 8.36 8.36 12.1119 8.36 16.72C8.36 21.3281 12.1119 25.08 16.72 25.08C21.3281 25.08 25.08 21.3281 25.08 16.72C25.08 12.1119 21.3281 8.36 16.72 8.36ZM16.72 9.88C20.5066 9.88 23.56 12.9334 23.56 16.72C23.56 20.5066 20.5066 23.56 16.72 23.56C12.9334 23.56 9.88 20.5066 9.88 16.72C9.88 12.9334 12.9334 9.88 16.72 9.88Z" fill="#C2EFD4"/>
</svg>
