<svg width="36" height="35" viewBox="0 0 36 35" fill="none" xmlns="http://www.w3.org/2000/svg">
<path d="M23.9555 0C19.7697 0 16.3659 4.09585 16.3659 9.1326C16.3659 9.43526 16.4288 9.73135 16.4534 10.0274C11.2779 9.43197 6.70121 6.43164 3.59265 1.84231C3.44775 1.62189 3.22356 1.50346 2.98843 1.52319C2.75604 1.54293 2.54826 1.70413 2.43343 1.94759C1.78001 3.29971 1.40544 4.85581 1.40544 6.52704C1.40544 8.55029 2.00693 10.4025 2.93649 11.9224C2.75604 11.827 2.5592 11.7743 2.38969 11.6592C2.1737 11.521 1.91397 11.5276 1.70345 11.6789C1.49293 11.8303 1.36443 12.1033 1.3617 12.3961V12.5014C1.3617 15.6037 2.69589 18.2981 4.66438 19.9496C4.6425 19.9463 4.62063 19.9562 4.59876 19.9496C4.35817 19.9002 4.11484 20.0022 3.95354 20.2226C3.79223 20.4431 3.74028 20.749 3.81137 21.0287C4.5933 23.9533 6.58912 26.1871 9.06066 27.003C7.09218 28.4111 4.80928 29.2401 2.34595 29.2401C1.81282 29.2401 1.30156 29.2072 0.793035 29.1348C0.464954 29.0822 0.150543 29.3125 0.0411831 29.6875C-0.0709136 30.0626 0.0521227 30.4804 0.333722 30.6876C3.4915 33.1254 7.23982 34.5565 11.2697 34.5565C17.8013 34.5565 22.9248 31.2732 26.3614 26.5819C29.7981 21.8906 31.5888 15.7978 31.5888 10.1064C31.5888 9.86623 31.5724 9.63265 31.567 9.39578C32.8492 8.21473 33.9948 6.82971 34.8915 5.21111C35.0692 4.89857 35.0501 4.48076 34.845 4.19125C34.6427 3.90175 34.301 3.81292 34.0166 3.97413C33.6558 4.16823 33.2347 4.18797 32.8574 4.34259C33.355 3.54316 33.7815 2.68122 34.0385 1.71072C34.126 1.37844 34.0303 1.01327 33.8034 0.796139C33.5765 0.582296 33.2593 0.555978 33.0105 0.736924C31.8158 1.58899 30.4925 2.18775 29.0954 2.55292C27.7394 1.02643 25.9541 0 23.9555 0ZM23.9555 1.6844C25.7408 1.6844 27.3539 2.60226 28.483 4.05308C28.6525 4.26363 28.9013 4.35246 29.1392 4.28995C30.0523 4.07282 30.919 3.75371 31.7638 3.34248C31.2772 4.13204 30.6757 4.80645 29.9703 5.31638C29.6504 5.5039 29.5001 5.94803 29.6176 6.35268C29.7324 6.75404 30.0824 6.98762 30.4296 6.8955C31.1295 6.79352 31.7529 6.45138 32.42 6.23754C31.8212 7.01723 31.1651 7.72125 30.4515 8.34303C30.2574 8.51411 30.1508 8.79045 30.1672 9.07996C30.1781 9.4221 30.189 9.76095 30.189 10.1064C30.189 15.3701 28.5104 21.0846 25.3116 25.4502C22.1128 29.8158 17.4158 32.8721 11.2697 32.8721C8.47831 32.8721 5.84273 32.1286 3.46141 30.8192C6.41414 30.5462 9.13721 29.2894 11.3353 27.2136C11.565 26.9931 11.6552 26.6247 11.5623 26.2891C11.4693 25.9535 11.2123 25.7233 10.9198 25.7134C8.61228 25.664 6.67934 24.0487 5.64862 21.7656C5.68689 21.7656 5.7197 21.7656 5.75798 21.7656C6.44968 21.7656 7.13318 21.6603 7.7702 21.4498C8.07641 21.3412 8.28693 20.999 8.276 20.6141C8.26506 20.2292 8.03814 19.9002 7.72646 19.818C5.23579 19.2127 3.36846 16.7716 2.93649 13.7384C3.64186 14.0312 4.36363 14.2615 5.14556 14.2911C5.46544 14.3141 5.75524 14.0739 5.85367 13.7088C5.9521 13.3436 5.8318 12.9422 5.56113 12.7383C3.89886 11.3993 2.80525 9.11944 2.80525 6.52704C2.80525 5.56641 3.01304 4.68473 3.28644 3.84253C6.78596 8.46476 11.6853 11.5342 17.2189 11.8697C17.4376 11.8829 17.6509 11.7743 17.7931 11.5737C17.9352 11.3697 17.9899 11.0999 17.9407 10.8433C17.8341 10.2972 17.7657 9.71818 17.7657 9.1326C17.7657 5.00713 20.5271 1.6844 23.9555 1.6844Z" fill="#C2EFD4"/>
</svg>
